<svg xmlns="http://www.w3.org/2000/svg" version="1.1" xmlns:xlink="http://www.w3.org/1999/xlink" xmlns:svgjs="http://svgjs.dev/svgjs" width="100%" height="100%" viewBox="0 0 1000 600"><rect width="1000" height="600" x="0" y="0" fill="#141a46"/><g><rect width="333.3333333333333" height="333.3333333333333" rx="13.333333333333334" ry="13.333333333333334" y="241.2586939892471" fill="#ec8b5e" transform="matrix(0.5706811447284166,0,0,0.5706811447284166,0,67.20467005570751)" x="219.0364990234375"/><path d="M425.33368278808575 332.9253591561246L442.4354094840023 332.9253591561246L442.4354094840023 428.68351233898414Q442.4354094840023 444.374490536416 436.1302274193462 456.61057445184457Q429.79625456900675 468.87544915295643 417.0419365112777 475.90040085969656Q404.28761845354865 482.92535256643674 385.05537361706337 482.92535256643674L385.05537361706337 482.92535256643674Q357.61775486082007 482.92535256643674 343.30873437618953 468.0693071538223Q328.9709231058756 453.18447095552455 328.9709231058756 428.28044133941705L328.9709231058756 428.28044133941705L328.9709231058756 332.9253591561246L346.30297608725914 332.9253591561246L346.30297608725914 428.76988469603424Q346.30297608725914 447.5990585329525 356.2645879337021 457.81978745054573Q366.2261997801451 468.0693071538223 386.063051115981 468.0693071538223L386.063051115981 468.0693071538223Q399.62351117284413 468.0693071538223 408.2895376635359 463.14608280196757Q416.9267733685443 458.22285845011277 421.130228078315 449.38408724532087Q425.33368278808575 440.5165252548456 425.33368278808575 428.88504783876766L425.33368278808575 428.88504783876766L425.33368278808575 332.9253591561246Z " fill="#141a46" transform="matrix(0.5706811447284166,0,0,0.5706811447284166,0,67.20467005570751)"/><path d="M652.335837471463 418.89791341688726L652.335837471463 480.19960044251695L635.7031655833839 480.19960044251695L635.7031655833839 337.23650093628436L715.3063544524184 337.23650093628436L715.3063544524184 351.8943907105615L652.335837471463 351.8943907105615L652.335837471463 404.3234651403764L711.4958593877582 404.3234651403764L711.4958593877582 418.89791341688726L652.335837471463 418.89791341688726ZM776.7192968084032 371.2806320249281L776.7192968084032 371.2806320249281Q795.8830274620597 371.2806320249281 805.1728475467058 379.8751062948553Q814.4626676313521 388.4695805647825 814.4626676313521 407.35517289255137L814.4626676313521 407.35517289255137L814.4626676313521 480.19960044251695L802.6139749485399 480.19960044251695L799.4988256985986 464.34571586692306L798.7200383861133 464.34571586692306Q794.214197506734 470.21443454315164 789.318962971112 474.19181260334454Q784.42372843549 478.1413768309487 778.0265469400749 480.14397277733946Q771.6293654446599 482.14656872373024 762.3395453600136 482.14656872373024L762.3395453600136 482.14656872373024Q752.5490762887697 482.14656872373024 744.9837138246266 478.72546731531264Q737.3905375278948 475.304365906895 733.051579644048 468.37872159229346Q728.6848079276126 461.42526344510316 728.6848079276126 450.7725655636076L728.6848079276126 450.7725655636076Q728.6848079276126 434.7239841598924 741.4235432532652 426.12950988996516Q754.1344647463291 417.50722178744917 780.1403982168208 416.7284344749639L780.1403982168208 416.7284344749639L798.6087830557583 415.9496471624786L798.6087830557583 409.4133965041197Q798.6087830557583 395.5064802097391 792.6566228817633 389.94371369198683Q786.6766488751797 384.38094717423456 775.8292541655628 384.38094717423456L775.8292541655628 384.38094717423456Q767.4294767237569 384.38094717423456 759.7806727618477 386.8285644420456Q752.159682632527 389.2483678772678 745.3174798156917 392.58602778791914L745.3174798156917 392.58602778791914L740.3388037823036 380.26449995109795Q747.5704002553814 376.5374463842039 756.9714756703827 373.9229461208604Q766.3447372527952 371.2806320249281 776.7192968084032 371.2806320249281ZM798.414086227637 437.2828567580584L798.414086227637 427.4089461890482L782.087366498034 428.0764781711785Q762.0335932015373 428.8552654836638 753.8285125878527 434.6405426621261Q745.6234319741682 440.39800600799964 745.6234319741682 450.9672623917289L745.6234319741682 450.9672623917289Q745.6234319741682 460.14582714602017 751.1861984919203 464.5404126950444Q756.7489650096726 468.9628120766574 765.9553435965526 468.9628120766574L765.9553435965526 468.9628120766574Q780.223839714587 468.9628120766574 789.318962971112 461.03586978886045Q798.414086227637 453.10892750106353 798.414086227637 437.2828567580584L798.414086227637 437.2828567580584ZM890.0328507750163 480.19960044251695L871.4532106057238 480.19960044251695L830.789387360955 373.03290347802005L848.2008465615195 373.03290347802005L871.7591627642003 437.8669472424224Q874.2067800320112 444.5144532311363 876.7378387975884 452.52483701669956Q879.2967113957545 460.5352208022628 880.2701955363611 465.4304553378848L880.2701955363611 465.4304553378848L880.9377275184914 465.4304553378848Q882.1337223198082 460.5352208022628 884.8594779135067 452.469209351522Q887.5852335072053 444.4031979007813 889.838153946895 437.8669472424224L889.838153946895 437.8669472424224L913.4242839821645 373.03290347802005L930.8079293501403 373.03290347802005L890.0328507750163 480.19960044251695ZM947.9412502248172 373.03290347802005L964.156714624065 373.03290347802005L964.156714624065 480.19960044251695L947.9412502248172 480.19960044251695L947.9412502248172 373.03290347802005ZM956.2297723362681 332.92535688502636L956.2297723362681 332.92535688502636Q960.2349642290496 332.92535688502636 963.1276028182808 335.5398571483699Q966.020241407512 338.12654357912476 966.020241407512 343.6058685991107L966.020241407512 343.6058685991107Q966.020241407512 348.9739382887416 963.1276028182808 351.61625238467394Q960.2349642290496 354.25856648060625 956.2297723362681 354.25856648060625L956.2297723362681 354.25856648060625Q952.0298836153651 354.25856648060625 949.2485003564889 351.61625238467394Q946.4671170976128 348.9739382887416 946.4671170976128 343.6058685991107L946.4671170976128 343.6058685991107Q946.4671170976128 338.12654357912476 949.2485003564889 335.5398571483699Q952.0298836153651 332.92535688502636 956.2297723362681 332.92535688502636ZM1041.3957277230547 482.14656872373024L1041.3957277230547 482.14656872373024Q1026.932534776899 482.14656872373024 1015.8904432391607 476.19440854973533Q1004.8483517014226 470.21443454315164 998.6736808667176 458.0041620366855Q992.5268238646013 445.7660756976306 992.5268238646013 427.2142493609269L992.5268238646013 427.2142493609269Q992.5268238646013 407.744566548794 999.0074468577827 395.36741104679527Q1005.5158836835528 382.9902555447965 1016.9751827101225 377.0380953708016Q1028.4066679041034 371.08593519680676 1042.9811161806142 371.08593519680676L1042.9811161806142 371.08593519680676Q1050.9914999661773 371.08593519680676 1058.4734209325543 372.6991374869549Q1065.9553418989308 374.31233977710303 1070.7393211041979 376.73214321232524L1070.7393211041979 376.73214321232524L1065.844086568576 390.3331073482295Q1060.9766658655426 388.38613906701625 1054.551670537539 386.8285644420456Q1048.1544890421237 385.2431759844862 1042.5917225243716 385.2431759844862L1042.5917225243716 385.2431759844862Q1031.4383756562784 385.2431759844862 1024.0398961876679 390.0549690223419Q1016.669230551646 394.8389482276088 1012.9978046499297 404.1287683122551Q1009.3263787482132 413.41858839690127 1009.3263787482132 426.9917387002168L1009.3263787482132 426.9917387002168Q1009.3263787482132 440.008612351757 1012.9143631521633 449.21499093863696Q1016.4745337235247 458.39355569292815 1023.5670610336588 463.2331625633726Q1030.659588343793 468.0727694338171 1041.3122862252885 468.0727694338171L1041.3122862252885 468.0727694338171Q1049.8233189974494 468.0727694338171 1056.6655218142846 466.2648703155476Q1063.50772463112 464.45697119727816 1069.0704911488722 462.0093539294671L1069.0704911488722 462.0093539294671L1069.0704911488722 476.472546875623Q1063.7024214592414 479.2261163019103 1057.110543135705 480.70024942911465Q1050.4908509795798 482.14656872373024 1041.3957277230547 482.14656872373024ZM1186.8064444970983 426.40764821585276L1186.8064444970983 426.40764821585276Q1186.8064444970983 439.61921869551435 1183.3853430886807 449.9937782511223Q1179.964241680263 460.3405239741415 1173.5114325196705 467.4886789494531Q1167.058623359078 474.63683392476474 1157.9078724373755 478.3917013242475Q1148.7849353482618 482.14656872373024 1137.242194823926 482.14656872373024L1137.242194823926 482.14656872373024Q1126.4782416120752 482.14656872373024 1117.5221875184943 478.3917013242475Q1108.593947257502 474.63683392476474 1102.0855104317318 467.4886789494531Q1095.5770736059617 460.3405239741415 1092.0169030346003 449.9937782511223Q1088.42891863065 439.61921869551435 1088.42891863065 426.40764821585276L1088.42891863065 426.40764821585276Q1088.42891863065 408.82930601975573 1094.4088926372337 396.452150517757Q1100.3610528112285 384.07499501575825 1111.4587720141444 377.5665581899881Q1122.5564912170598 371.08593519680676 1137.9097268060561 371.08593519680676L1137.9097268060561 371.08593519680676Q1152.5954304129223 371.08593519680676 1163.5818942854826 377.62218585516564Q1174.5961719906322 384.18625034611324 1180.687401327571 396.53559201552326Q1186.8064444970983 408.912747517522 1186.8064444970983 426.40764821585276ZM1105.2562873468505 426.40764821585276L1105.2562873468505 426.40764821585276Q1105.2562873468505 439.313266537038 1108.677388755268 448.79778344980554Q1112.0984901636857 458.28230036257315 1119.2466451389973 463.48348705667144Q1126.394800114309 468.65685991818106 1137.6315884801686 468.65685991818106L1137.6315884801686 468.65685991818106Q1148.7849353482618 468.65685991818106 1155.960904156162 463.48348705667144Q1163.1368729640626 458.28230036257315 1166.5579743724802 448.79778344980554Q1170.0068896134867 439.313266537038 1170.0068896134867 426.40764821585276L1170.0068896134867 426.40764821585276Q1170.0068896134867 413.61328522502265 1166.5579743724802 404.26783747519886Q1163.1368729640626 394.9223897253751 1156.0165318213399 389.86027219422056Q1148.8683768460282 384.77034083047727 1137.5203331498135 384.77034083047727L1137.5203331498135 384.77034083047727Q1120.8042197639681 384.77034083047727 1113.0441604717037 395.81243236821547Q1105.2562873468505 406.85452390595367 1105.2562873468505 426.40764821585276ZM1265.6308460536475 371.08593519680676L1265.6308460536475 371.08593519680676Q1284.6833213769492 371.08593519680676 1294.473790448193 380.4035691140418Q1304.2364456868481 389.7490168638655 1304.2364456868481 410.3868806447263L1304.2364456868481 410.3868806447263L1304.2364456868481 480.19960044251695L1288.2156781157219 480.19960044251695L1288.2156781157219 411.47162011568804Q1288.2156781157219 398.06535280790513 1282.0966349461942 391.4178468191912Q1275.977591776667 384.77034083047727 1263.3779256139578 384.77034083047727L1263.3779256139578 384.77034083047727Q1245.5770727571507 384.77034083047727 1238.345476284073 394.8389482276088Q1231.113879810995 404.9075556247404 1231.113879810995 424.0712862783968L1231.113879810995 424.0712862783968L1231.113879810995 480.19960044251695L1214.8706015791583 480.19960044251695L1214.8706015791583 373.03290347802005L1227.970916728465 373.03290347802005L1230.418533996276 388.4695805647825L1231.3085766391164 388.4695805647825Q1234.729678047534 382.7955587166752 1240.0143062393986 378.9572498194262Q1245.2989344312632 375.0911270895884 1251.835185089622 373.08853114319754Q1258.3992495805696 371.08593519680676 1265.6308460536475 371.08593519680676ZM1335.2488690233172 470.0197377150304L1335.2488690233172 470.0197377150304Q1335.2488690233172 463.1775348981951 1338.5587151013797 460.3127101415527Q1341.8963750120308 457.42007155232153 1346.6803542172977 457.42007155232153L1346.6803542172977 457.42007155232153Q1351.6868440832748 457.42007155232153 1355.1079454916926 460.3127101415527Q1358.5290469001102 463.1775348981951 1358.5290469001102 470.0197377150304L1358.5290469001102 470.0197377150304Q1358.5290469001102 476.77849903409935 1355.1079454916926 479.8658344514518Q1351.6868440832748 482.92535603621553 1346.6803542172977 482.92535603621553L1346.6803542172977 482.92535603621553Q1341.8963750120308 482.92535603621553 1338.5587151013797 479.8658344514518Q1335.2488690233172 476.77849903409935 1335.2488690233172 470.0197377150304ZM1390.2924437164752 373.03290347802005L1406.5357219483121 373.03290347802005L1406.5357219483121 480.19960044251695L1390.2924437164752 480.19960044251695L1390.2924437164752 373.03290347802005ZM1398.6087796605148 332.92535688502636L1398.6087796605148 332.92535688502636Q1402.6139715532966 332.92535688502636 1405.5066101425277 335.5398571483699Q1408.399248731759 338.12654357912476 1408.399248731759 343.6058685991107L1408.399248731759 343.6058685991107Q1408.399248731759 348.9739382887416 1405.5066101425277 351.61625238467394Q1402.6139715532966 354.25856648060625 1398.6087796605148 354.25856648060625L1398.6087796605148 354.25856648060625Q1394.408890939612 354.25856648060625 1391.627507680736 351.61625238467394Q1388.818310589271 348.9739382887416 1388.818310589271 343.6058685991107L1388.818310589271 343.6058685991107Q1388.818310589271 338.12654357912476 1391.627507680736 335.5398571483699Q1394.408890939612 332.92535688502636 1398.6087796605148 332.92535688502636ZM1533.255543222708 426.40764821585276L1533.255543222708 426.40764821585276Q1533.255543222708 439.61921869551435 1529.8344418142904 449.9937782511223Q1526.4133404058728 460.3405239741415 1519.96053124528 467.4886789494531Q1513.5077220846874 474.63683392476474 1504.356971162985 478.3917013242475Q1495.2062202412826 482.14656872373024 1483.6912935495357 482.14656872373024L1483.6912935495357 482.14656872373024Q1472.9273403376849 482.14656872373024 1463.9712862441038 478.3917013242475Q1455.0430459831114 474.63683392476474 1448.5346091573413 467.4886789494531Q1442.0261723315712 460.3405239741415 1438.4660017602098 449.9937782511223Q1434.8780173562595 439.61921869551435 1434.8780173562595 426.40764821585276L1434.8780173562595 426.40764821585276Q1434.8780173562595 408.82930601975573 1440.8579913628432 396.452150517757Q1446.810151536838 384.07499501575825 1457.907870739754 377.5665581899881Q1469.0055899426698 371.08593519680676 1484.3588255316658 371.08593519680676L1484.3588255316658 371.08593519680676Q1499.0445291385317 371.08593519680676 1510.0309930110925 377.62218585516564Q1521.0452707162417 384.18625034611324 1527.1365000531805 396.53559201552326Q1533.255543222708 408.912747517522 1533.255543222708 426.40764821585276ZM1451.7053860724602 426.40764821585276L1451.7053860724602 426.40764821585276Q1451.7053860724602 439.313266537038 1455.1264874808776 448.79778344980554Q1458.5475888892954 458.28230036257315 1465.695743864607 463.48348705667144Q1472.81608500733 468.65685991818106 1484.0806872057783 468.65685991818106L1484.0806872057783 468.65685991818106Q1495.2062202412826 468.65685991818106 1502.4100028817718 463.48348705667144Q1509.585971689672 458.28230036257315 1513.0070730980897 448.79778344980554Q1516.4281745065075 439.313266537038 1516.4281745065075 426.40764821585276L1516.4281745065075 426.40764821585276Q1516.4281745065075 413.61328522502265 1513.0070730980897 404.26783747519886Q1509.585971689672 394.9223897253751 1502.4656305469493 389.86027219422056Q1495.3174755716377 384.77034083047727 1483.9694318754232 384.77034083047727L1483.9694318754232 384.77034083047727Q1467.2533184895779 384.77034083047727 1459.4932591973131 395.81243236821547Q1451.7053860724602 406.85452390595367 1451.7053860724602 426.40764821585276Z " fill="#ec8b5e" transform="matrix(0.5706811447284166,0,0,0.5706811447284166,0,67.20467005570751)"/></g></svg>